<?xml version="1.0" encoding="UTF-8"?>
<svg version="1.1" xmlns="http://www.w3.org/2000/svg" width="1024" height="1024">
<path d="M0 0 C337.92 0 675.84 0 1024 0 C1024 337.92 1024 675.84 1024 1024 C686.08 1024 348.16 1024 0 1024 C0 686.08 0 348.16 0 0 Z " fill="#000000" transform="translate(0,0)"/>
<path d="M0 0 C12.79178099 9.46004856 19.31982273 22.01500551 26 36 C30.50643464 34.56576402 33.07710359 32.28116376 36.4375 29 C50.66993251 15.4906055 69.34390936 1.44994045 89.79296875 1.7890625 C94.63188881 2.25154336 97.7090495 4.44562079 100.8125 8 C104.09766695 12.50537181 104.15954328 16.12176689 104.16796875 21.4921875 C104.17129715 22.23397247 104.17462555 22.97575745 104.17805481 23.74002075 C104.18311939 25.31528098 104.18546328 26.89055195 104.18530273 28.46582031 C104.18746039 30.83157132 104.20553941 33.19683331 104.22460938 35.5625 C104.2570339 44.58934504 103.73561598 53.11246617 102 62 C107.8237826 60.35852438 107.8237826 60.35852438 112 56.3125 C112.33 55.549375 112.66 54.78625 113 54 C161.56134725 63.06796656 207.22901118 81.73245281 245 114 C245.73734375 114.62519531 246.4746875 115.25039063 247.234375 115.89453125 C260.0754741 127.11942305 272.77753898 139.3173249 283 153 C283.40557129 153.52916016 283.81114258 154.05832031 284.22900391 154.60351562 C318.58565321 199.43088368 339.04718095 252.50776192 354.62109375 306.328125 C358.37461898 319.18047888 362.60763537 331.8545548 367 344.5 C381.78329939 387.0605381 391.27553374 427.60529148 371.18164062 470.15258789 C344.66177586 524.43625018 285.65349538 554.79495502 231.16992188 573.93261719 C222.13600563 576.97453661 212.97164445 579.59509886 203.80322266 582.19677734 C201.58275946 582.83301876 199.37313397 583.48910955 197.16796875 584.17578125 C191.51938501 585.90232949 185.8209514 587.29836928 180.046875 588.53515625 C178.14603149 588.94386963 178.14603149 588.94386963 176.20678711 589.36083984 C171.37031092 590.38750327 166.53072875 591.39892405 161.6887207 592.39916992 C158.921249 592.9697375 158.921249 592.9697375 156 594 C155.67 596.64 155.34 599.28 155 602 C155.845625 601.86722656 156.69125 601.73445312 157.5625 601.59765625 C158.696875 601.42105469 159.83125 601.24445312 161 601.0625 C162.11375 600.88847656 163.2275 600.71445312 164.375 600.53515625 C168.24490599 599.9638447 172.11693027 599.47261046 176 599 C187.68779868 633.45498153 187.68779868 633.45498153 192.37353516 650.71044922 C192.99731873 652.99020071 193.6417727 655.26309639 194.29296875 657.53515625 C197.54887582 668.94202397 200.36457316 680.43498362 203 692 C203.21688477 692.95132813 203.43376953 693.90265625 203.65722656 694.8828125 C206.51953301 707.52923275 209.08512335 720.17456829 211 733 C211.10441406 733.68594238 211.20882813 734.37188477 211.31640625 735.07861328 C212.44156846 742.55417674 213 749.38090158 213 757 C97.17 757 -18.66 757 -138 757 C-137.36900159 748.79702068 -136.69848699 740.70398843 -135.625 732.5625 C-135.49488525 731.56822998 -135.36477051 730.57395996 -135.23071289 729.54956055 C-134.35617657 723.08954717 -133.26516295 716.76810972 -131.74609375 710.42578125 C-131.10247052 707.47050601 -130.57930468 704.53866443 -130.09375 701.5546875 C-128.90331157 694.27628044 -127.49765494 687.04611471 -126.0625 679.8125 C-125.80792782 678.49804976 -125.55337047 677.18359664 -125.29882812 675.86914062 C-123.94468079 669.04299128 -122.39344855 662.53732963 -120 656 C-118.82824219 655.92523437 -117.65648437 655.85046875 -116.44921875 655.7734375 C-104.72734901 654.86311013 -95.13924071 653.22433641 -87.0625 643.875 C-79.66258728 633.17440679 -79.27900727 621.55532701 -79 609 C-75.04 609 -71.08 609 -67 609 C-67.18415432 606.05908413 -67.18415432 606.05908413 -68 603 C-70.51016196 600.97256149 -72.31558014 600.97785403 -75.5625 600.75 C-79 600 -79 600 -80.9375 597.1875 C-82 594 -82 594 -82 590 C-81.18015625 589.60167969 -80.3603125 589.20335937 -79.515625 588.79296875 C-78.43796875 588.26316406 -77.3603125 587.73335937 -76.25 587.1875 C-74.64898437 586.40439453 -74.64898437 586.40439453 -73.015625 585.60546875 C-70.03725532 584.11983835 -70.03725532 584.11983835 -67.73046875 582.29296875 C-66 581 -66 581 -64.0625 581.125 C-61.54742382 582.19200202 -59.30001557 583.53054561 -57 585 C-57.38554171 588.75903172 -58.27894577 591.80045361 -59.875 595.1875 C-65.3908954 607.30636508 -67.34915095 620.45485236 -63.375 633.375 C-56.73351938 650.51280663 -44.96950176 659.89280467 -28.625 667.6875 C-11.50482461 675.06006108 7.16140673 680.17553601 25.8515625 680.1328125 C27.25539688 680.13424759 27.25539688 680.13424759 28.68759155 680.13571167 C30.66265938 680.13638972 32.63772947 680.1345617 34.61279297 680.13037109 C37.59477922 680.12505389 40.57661236 680.13031013 43.55859375 680.13671875 C59.61565774 680.14604741 74.7585401 678.93851341 90.5 675.8125 C91.28671082 675.65859802 92.07342163 675.50469604 92.88397217 675.34613037 C112.97444457 671.85786787 112.97444457 671.85786787 132 665 C132.46523063 663.10466658 132.46523063 663.10466658 132.625 660.9375 C132.74875 659.638125 132.8725 658.33875 133 657 C126.30828189 658.24563624 119.72539097 659.79409421 113.12744141 661.46240234 C99.08751373 664.99459037 85.07554891 667.68252715 70.72119141 669.63037109 C68.72393339 669.90166561 66.73139445 670.20831258 64.74243164 670.53491211 C60.39202969 671.07555505 56.14812026 671.16204859 51.76953125 671.16796875 C50.89785812 671.17129715 50.026185 671.17462555 49.12809753 671.17805481 C47.29007491 671.183096 45.45204321 671.18546401 43.61401367 671.18530273 C40.83822068 671.18747983 38.06283175 671.20563976 35.28710938 671.22460938 C25.97617019 671.2545824 17.14064242 670.97133692 8 669 C6.42378919 668.7217702 4.84698551 668.4468724 3.26953125 668.17578125 C-16.01157417 664.54677143 -37.8314337 657.07451774 -49.8203125 640.48046875 C-55.88552392 630.70873924 -57.28125149 621.31729186 -56 610 C-54.06993669 602.26317969 -50.41375737 595.83665798 -46.16015625 589.16796875 C-44.65495036 586.35521027 -44.50551756 584.13172213 -45 581 C-45.96099609 580.65388672 -45.96099609 580.65388672 -46.94140625 580.30078125 C-52.60774601 578.16429249 -57.45326881 576.05252128 -62 572 C-62.1796875 569.33984375 -62.1796875 569.33984375 -62 567 C-47.25748134 565.97779146 -36.0894622 569.44028769 -24.18115234 577.84643555 C2.97599718 596.78707329 34.70316344 605.74319318 67 611 C67.90733887 611.15098145 68.81467773 611.30196289 69.74951172 611.45751953 C87.19951969 614.26929728 104.38149999 614.34029393 122 614 C122 611.69 122 609.38 122 607 C118.4935769 605.8311923 115.19901166 605.70244323 111.54296875 605.53515625 C110.02147908 605.45648263 108.49999488 605.37770292 106.97851562 605.29882812 C104.6007661 605.18051158 102.22294281 605.06419549 99.8449707 604.95043945 C89.77415035 604.46179108 79.96610362 603.58489292 70 602 C67.97956666 601.72619867 65.95878172 601.45496639 63.9375 601.1875 C34.03958516 596.52050841 2.80497077 586.71597318 -21.73828125 568.59765625 C-31.4156615 561.76164844 -40.33141178 558.6454778 -52.125 558.75 C-53.00542969 558.74226562 -53.88585937 558.73453125 -54.79296875 558.7265625 C-59.38603934 558.74041792 -62.77423426 559.04964658 -67 561 C-68.32 561 -69.64 561 -71 561 C-71 560.34 -71 559.68 -71 559 C-82.79426202 555.24038949 -97.24902861 558.41776262 -109 561 C-109.67417969 561.14453613 -110.34835937 561.28907227 -111.04296875 561.43798828 C-127.83154773 565.10338645 -145.09326453 570.2347445 -157.26953125 583.03125 C-160.61127256 584.90202166 -164.63598197 583.10099057 -168.14599609 582.12719727 C-171.89278146 580.95040224 -175.63796873 579.76989317 -179.375 578.5625 C-180.0616272 578.34102295 -180.74825439 578.1195459 -181.45568848 577.89135742 C-212.38441399 567.85993441 -241.61051626 555.05630021 -265 532 C-265.80179688 531.21109375 -266.60359375 530.4221875 -267.4296875 529.609375 C-277.69731529 518.8798816 -284.26595066 506.2975837 -288 492 C-288.25821533 491.06051514 -288.51643066 490.12103027 -288.7824707 489.15307617 C-290.90334797 480.87655867 -291.5070489 473.08853834 -291.4375 464.5625 C-291.43412628 463.89604462 -291.43075256 463.22958923 -291.42727661 462.54293823 C-291.26232132 439.67757092 -286.92752372 417.37203465 -282.90493774 394.94134521 C-279.96832427 378.5076601 -278.19299943 362.38948483 -277.72143555 345.69384766 C-276.71227385 310.96335618 -273.07718669 274.62205475 -261.86572266 241.56884766 C-260.89362932 238.68436765 -259.96967265 235.78608697 -259.04296875 232.88671875 C-247.93979465 198.82863915 -230.72932777 167.8384415 -207 141 C-206.2059375 140.08347656 -205.411875 139.16695312 -204.59375 138.22265625 C-200.65913624 133.74231695 -196.63825748 129.60762638 -192.078125 125.765625 C-189.76398319 123.79947444 -187.5443052 121.74652028 -185.3125 119.6875 C-170.39583878 106.27160043 -153.73401404 95.64005007 -136.11865234 86.15185547 C-134.11397469 85.06196504 -132.12732096 83.94551637 -130.14453125 82.81640625 C-129.00371094 82.17574219 -127.86289062 81.53507812 -126.6875 80.875 C-125.70136719 80.31554687 -124.71523438 79.75609375 -123.69921875 79.1796875 C-120.80760739 77.91591524 -119.11272735 77.55532466 -116 78 C-113.68128811 79.40832826 -112.0034285 81.13634558 -110 83 C-108.68 82.34 -107.36 81.68 -106 81 C-105.53902977 78.21901175 -105.53902977 78.21901175 -106 75 C-107.80607508 72.99224654 -109.41901241 71.47394114 -111.5 69.8125 C-120.5833586 62.01909376 -127.86122799 53.36898792 -129.34375 41.171875 C-129.59957998 36.38785435 -129.64445023 33.87716837 -126.75 29.9375 C-120.99150982 25.88038192 -116.96989814 25.30744961 -110 26 C-92.87983795 29.04272846 -76.51776946 36.10806489 -60.85986328 43.47363281 C-56.89500154 45.30816286 -53.39678604 46.51146822 -49 47 C-48.82984375 45.77925781 -48.6596875 44.55851562 -48.484375 43.30078125 C-43.75100111 10.58050088 -43.75100111 10.58050088 -30.9375 0.4375 C-21.17341669 -6.04077325 -10.16407916 -5.50022694 0 0 Z " fill="#FEFEFE" transform="translate(483,157)"/>
<path d="M0 0 C1.23919189 -0.02078613 1.23919189 -0.02078613 2.50341797 -0.04199219 C6.1530496 -0.01343835 8.37612741 0.00410014 11.5625 1.8984375 C12.036875 2.38570312 12.51125 2.87296875 13 3.375 C12.60212855 6.8232192 11.03533666 9.55354181 8.80078125 12.18359375 C5.59126162 14.30702864 2.14083471 13.74466518 -1.57421875 13.48828125 C-4.01026409 13.1766112 -4.01026409 13.1766112 -6 14.375 C-6.20379605 19.5717993 -6.20550798 23.57477675 -4 28.375 C-2.7474871 33.94956448 -2.81632162 39.50474431 -2.8125 45.1875 C-2.80025391 46.13431641 -2.78800781 47.08113281 -2.77539062 48.05664062 C-2.75479968 58.0295224 -3.90343594 66.8857407 -11 74.375 C-20.03868118 81.87124412 -31.15183086 81.41478189 -42.32592773 80.70874023 C-53.48310713 79.31625742 -63.5401968 74.25935849 -70.59375 65.42578125 C-75.49134299 58.28345814 -75.91167532 50.89064855 -75 42.375 C-71.87276082 29.76982054 -64.34504018 20.64199178 -53.48828125 13.78125 C-44.79824509 8.87008357 -35.75708718 6.37948053 -26.0859375 4.2890625 C-22.70878088 3.55840528 -19.43547032 2.61721379 -16.125 1.625 C-10.74982321 0.26249001 -5.51699066 0.05609443 0 0 Z " fill="#FCFCFC" transform="translate(397,723.625)"/>
<path d="M0 0 C5.95175385 4.41926633 11.75694427 9.30767864 13 17 C13.45758155 22.38595988 13.79312978 27.28155214 11.5 32.25 C10.2625 33.61125 10.2625 33.61125 9 35 C8.49855469 35.62261719 7.99710937 36.24523437 7.48046875 36.88671875 C0.35141486 45.04086535 -12.36446388 51.2576005 -23.15258789 52.18505859 C-25.52254445 52.26805612 -27.8787868 52.27779044 -30.25 52.25 C-31.08974365 52.24250732 -31.9294873 52.23501465 -32.79467773 52.22729492 C-46.60834783 51.98864547 -57.03358488 48.9600714 -67.50390625 39.6484375 C-71.60611671 35.12850848 -70.67502303 27.26255928 -70.51953125 21.46875 C-70.12696545 16.24319097 -68.43509585 13.3774456 -64.515625 9.8828125 C-63.27039063 8.95082031 -63.27039063 8.95082031 -62 8 C-60.69289062 6.94425781 -60.69289062 6.94425781 -59.359375 5.8671875 C-43.59656387 -5.80418358 -17.37073402 -11.36198955 0 0 Z " fill="#FCABAC" transform="translate(309,591)"/>
<path d="M0 0 C5.54469431 5.30471893 9.17718818 9.60820825 10.21484375 17.390625 C9.98091477 25.16876345 3.38180313 31.66860077 -1.94921875 36.78515625 C-12.9190416 45.4986443 -24.64748564 47.00138615 -38.16015625 47.015625 C-39.37574219 47.04011719 -40.59132813 47.06460938 -41.84375 47.08984375 C-52.29762429 47.12367506 -61.41462556 44.83024464 -69.28515625 37.640625 C-73.22971838 33.55262425 -75.10098253 29.66132805 -75.41015625 23.9609375 C-74.92228244 14.90477993 -69.89846422 7.86870766 -63.3671875 1.8828125 C-46.85036671 -11.23833455 -16.7617899 -14.03312643 0 0 Z " fill="#FBA9A8" transform="translate(625.28515625,577.359375)"/>
<path d="M0 0 C7.60741997 4.2761453 13.10793356 10.78970854 15.8125 19.0625 C18.34517624 29.67818553 17.15044296 38.64337893 12.1875 48.1875 C8.58353296 52.55019695 2.59844665 57.55285334 -3.21875 58.3359375 C-11.17280255 58.66316118 -17.25741652 56.58680049 -23.23046875 51.23046875 C-32.02451084 41.72390299 -33.56849311 32.42037157 -33.46875 19.703125 C-32.89288424 12.24886265 -29.6773845 7.98931942 -24.1875 3.0625 C-23.6925 2.505625 -23.1975 1.94875 -22.6875 1.375 C-16.54251912 -4.00185827 -6.96500276 -3.1170537 0 0 Z " fill="#131315" transform="translate(360.1875,562.9375)"/>
<path d="M0 0 C7.96950502 4.76186192 13.22735682 11.44600325 15.6875 20.4375 C16.85573517 30.70567227 16.27018784 40.10644073 10.0390625 48.71484375 C6.04959217 53.5318243 2.58551207 57.11302444 -3.87109375 57.8359375 C-5.15113281 57.82820312 -6.43117188 57.82046875 -7.75 57.8125 C-9.66619141 57.82410156 -9.66619141 57.82410156 -11.62109375 57.8359375 C-17.55632986 57.19530884 -22.02272757 54.5072841 -26.3125 50.4375 C-28.17672851 47.87283881 -29.82630525 45.23780379 -31.3125 42.4375 C-31.68246094 41.74140625 -32.05242187 41.0453125 -32.43359375 40.328125 C-33.76561146 35.94726674 -33.68114425 31.67889819 -33.6875 27.125 C-33.71199219 26.21298828 -33.73648437 25.30097656 -33.76171875 24.36132812 C-33.79577365 16.44356458 -31.49966348 11.59673614 -27.0625 5.1875 C-19.78185329 -2.09314671 -9.66999426 -4.3374149 0 0 Z " fill="#121112" transform="translate(532.3125,550.5625)"/>
<path d="M0 0 C0.75 2.1875 0.75 2.1875 1 5 C-1.78581351 9.28481389 -4.84647381 11.31283094 -9.3125 13.6875 C-17.20172591 17.98994758 -24.58104143 22.94119175 -32 28 C-35 30 -35 30 -37.421875 29.79296875 C-40.1213675 28.9626703 -41.9271929 27.90420774 -44.25 26.3125 C-56.23701797 18.98319429 -69.23130881 16.2797911 -82.97705078 14.29248047 C-83.96044434 14.14955566 -84.94383789 14.00663086 -85.95703125 13.859375 C-87.27151245 13.68100098 -87.27151245 13.68100098 -88.61254883 13.49902344 C-91.02566503 12.99463551 -92.85894515 12.20254001 -95 11 C-95.25 5.375 -95.25 5.375 -93 2 C-86.87026087 1.30606727 -81.43422831 2.67712577 -75.4921875 4.15234375 C-72.00910063 4.99779101 -68.51762373 5.68949426 -65 6.375 C-56.34732205 8.21538028 -48.23938796 11.20726318 -40.4375 15.375 C-37.35903926 17.17816796 -37.35903926 17.17816796 -35.1953125 16.859375 C-32.01149141 15.61303934 -29.26973459 13.75955206 -26.4375 11.875 C-25.18884994 11.05982253 -23.9401514 10.2447193 -22.69140625 9.4296875 C-21.46062912 8.62026038 -20.23014922 7.81038109 -19 7 C-16.96198766 5.66108765 -14.92072165 4.32710341 -12.875 3 C-12.02679687 2.443125 -11.17859375 1.88625 -10.3046875 1.3125 C-6.55021334 -0.82564122 -4.1250955 -1.32592355 0 0 Z " fill="#100E0F" transform="translate(528,227)"/>
<path d="M0 0 C-0.33 2.97 -0.66 5.94 -1 9 C-3.24609375 9.45572917 -5.4921875 9.91145833 -7.73828125 10.3671875 C-10.25301118 10.94478999 -10.25301118 10.94478999 -13 13 C-13.11635105 15.29781554 -13.11635105 15.29781554 -12 18 C-8.96472988 20.76723911 -5.50059867 22.98725028 -2.1015625 25.28125 C-0.4375 26.5 -0.4375 26.5 2 29 C2.39275698 33.418516 0.55663269 35.7370141 -2.0625 39.0625 C-2.61035156 39.69285156 -3.15820312 40.32320312 -3.72265625 40.97265625 C-5.2987784 43.47420792 -5.23645284 45.09716404 -5 48 C-0.545 49.98 -0.545 49.98 4 52 C3.125 58.875 3.125 58.875 2 60 C-2.63297667 60.59497174 -6.11835858 60.44913808 -10.3125 58.3125 C-16.86874672 52.67107841 -16.86874672 52.67107841 -17.16015625 48.9609375 C-16.80712544 43.94962203 -15.34158754 40.05342187 -12.83984375 35.7265625 C-11.78128937 33.87036971 -11.78128937 33.87036971 -12 31 C-13.62782095 29.22901802 -13.62782095 29.22901802 -15.75 27.5625 C-16.47703125 26.94117188 -17.2040625 26.31984375 -17.953125 25.6796875 C-19.43044578 24.46738228 -20.95278368 23.30923183 -22.5 22.1875 C-24.67139407 19.02088364 -24.67494949 16.31802338 -24.5078125 12.53515625 C-23.4782993 7.39550959 -20.27829803 4.57980748 -16.1015625 1.68359375 C-11.14976198 -1.12503619 -5.38126543 -2.69063271 0 0 Z " fill="#0E0D0E" transform="translate(434,617)"/>
<path d="M0 0 C2.51507618 1.06700202 4.76248443 2.40554561 7.0625 3.875 C6.57472158 8.6308396 5.04336351 12.28303233 3.05078125 16.55078125 C1.61609311 19.9248502 0.84304495 23.29750234 0.0625 26.875 C-0.9275 26.875 -1.9175 26.875 -2.9375 26.875 C-3.02 26.09125 -3.1025 25.3075 -3.1875 24.5 C-3.67072067 21.82387747 -3.67072067 21.82387747 -5.5625 20.625 C-8.09099924 19.72482199 -8.09099924 19.72482199 -11.5 19.625 C-14.9375 18.875 -14.9375 18.875 -16.875 16.0625 C-17.9375 12.875 -17.9375 12.875 -17.9375 8.875 C-17.11765625 8.47667969 -16.2978125 8.07835937 -15.453125 7.66796875 C-14.37546875 7.13816406 -13.2978125 6.60835937 -12.1875 6.0625 C-11.12015625 5.54042969 -10.0528125 5.01835938 -8.953125 4.48046875 C-5.97475532 2.99483835 -5.97475532 2.99483835 -3.66796875 1.16796875 C-1.9375 -0.125 -1.9375 -0.125 0 0 Z " fill="#F3F3F4" transform="translate(418.9375,738.125)"/>
<path d="M0 0 C-3.27229886 3.36663541 -6.63285895 6.39967271 -10.3125 9.3125 C-14.58039914 12.75898652 -18.48725364 16.36348804 -22.30078125 20.30078125 C-24 22 -24 22 -26.5625 24 C-33.17364832 29.42453196 -38.33792067 36.78092553 -43.765625 43.36328125 C-45.4472507 45.34771717 -47.11870854 47.21032987 -49 49 C-49.66 48.67 -50.32 48.34 -51 48 C-49.87548273 45.0280615 -48.77706209 42.66559313 -47 40 C-46.34 40 -45.68 40 -45 40 C-44.90460938 39.40058594 -44.80921875 38.80117188 -44.7109375 38.18359375 C-43.84452039 35.52245549 -42.82912578 34.74116964 -40.625 33.0625 C-37.59708212 30.61805514 -35.98138823 28.35974526 -34 25 C-32.07413858 23.23249854 -30.0386373 21.63977348 -28 20 C-27.67 19.34 -27.34 18.68 -27 18 C-26.01 17.67 -25.02 17.34 -24 17 C-23.67 16.01 -23.34 15.02 -23 14 C-21.3984375 12.859375 -21.3984375 12.859375 -19.375 11.75 C-15.50718703 9.46542107 -12.59881107 6.82437956 -9.54296875 3.55078125 C-6.38602992 0.37785792 -4.34040764 -0.23461663 0 0 Z " fill="#1F1D26" transform="translate(311,266)"/>
<path d="M0 0 C0.62640381 0.26103516 1.25280762 0.52207031 1.89819336 0.79101562 C15.87082714 6.58031187 29.8796971 11.76249239 44.3359375 16.2109375 C49.96280595 17.94993847 55.48504875 19.936106 61 22 C61 22.66 61 23.32 61 24 C60.34 24 59.68 24 59 24 C59 24.99 59 25.98 59 27 C57.35 27 55.7 27 54 27 C53.505 26.01 53.505 26.01 53 25 C51.24217745 24.13578624 49.44141542 23.35810339 47.625 22.625 C46.53058594 22.18285156 45.43617188 21.74070312 44.30859375 21.28515625 C40.55421073 19.82684219 36.77564485 18.45247099 32.984375 17.09375 C24.17162626 13.8639468 15.46314046 10.45428445 7.1484375 6.078125 C4.81322048 4.90627064 2.43651739 3.94041022 0 3 C0 2.01 0 1.02 0 0 Z " fill="#19191B" transform="translate(262,719)"/>
<path d="M0 0 C0.495 0.680625 0.99 1.36125 1.5 2.0625 C6.8314588 8.32696409 12.50160394 12.67613116 20 16 C21.33612461 16.66105466 22.67021576 17.32628188 24 18 C23.34 19.98 22.68 21.96 22 24 C16.36366014 22.34667364 11.76194805 20.54613153 7 17 C6.3503125 16.53335938 5.700625 16.06671875 5.03125 15.5859375 C1.01448392 12.66329054 -2.6945151 9.71867051 -6 6 C-6 5.34 -6 4.68 -6 4 C-3.53199953 5.15173355 -1.95216435 6.04783565 0 8 C0.33 7.34 0.66 6.68 1 6 C0.34 6 -0.32 6 -1 6 C-0.67 4.02 -0.34 2.04 0 0 Z " fill="#161617" transform="translate(324,785)"/>
<path d="M0 0 C0.33 0 0.66 0 1 0 C0.73780153 5.8534759 0.4711442 11.70672576 0.20043945 17.55981445 C0.10905809 19.54901695 0.01887335 21.53827481 -0.07006836 23.52758789 C-0.19847463 26.39484979 -0.33125099 29.26188188 -0.46484375 32.12890625 C-0.50343002 33.01147598 -0.5420163 33.89404572 -0.58177185 34.80335999 C-1.21984832 48.21984832 -1.21984832 48.21984832 -5 52 C-5 38.47 -5 24.94 -5 11 C-4.01 10.67 -3.02 10.34 -2 10 C-2 8.02 -2 6.04 -2 4 C-1.34 4 -0.68 4 0 4 C0 2.68 0 1.36 0 0 Z " fill="#110F11" transform="translate(207,470)"/>
<path d="M0 0 C0.99 0 1.98 0 3 0 C1.32743891 5.44472013 -0.95373993 10.54949227 -3.25 15.75 C-7.42966952 25.33119266 -10.89408705 35.0245384 -14 45 C-16.52797338 40.57604658 -16.24818536 36.83401268 -15 32 C-13.64750917 28.94545147 -12.13401539 26.02532414 -10.5546875 23.08203125 C-8.59591968 19.1989463 -7.25516444 15.22538787 -5.95703125 11.08203125 C-5.48330078 10.05142578 -5.48330078 10.05142578 -5 9 C-4.01 8.67 -3.02 8.34 -2 8 C-1.855625 6.865625 -1.71125 5.73125 -1.5625 4.5625 C-1 1 -1 1 0 0 Z " fill="#1B1A23" transform="translate(237,351)"/>
<path d="M0 0 C3.875 0.875 3.875 0.875 5 2 C5.30437704 7.78316385 4.58813841 12.44151555 3 18 C0.36 18 -2.28 18 -5 18 C-3.75971762 11.82777121 -2.10396411 5.93317878 0 0 Z " fill="#F0A9A3" transform="translate(599,586)"/>
<path d="M0 0 C3.86908509 5.80362764 1.6330019 12.90216348 0.5625 19.4375 C-1.26808218 31.25365741 -1.71783037 43.06001565 -2 55 C-2.33 55 -2.66 55 -3 55 C-4.91499897 13.64586212 -4.91499897 13.64586212 0 0 Z " fill="#231F25" transform="translate(194,574)"/>
<path d="M0 0 C1.58383488 0.11847584 3.16704288 0.24532272 4.75 0.375 C6.07257813 0.47941406 6.07257813 0.47941406 7.421875 0.5859375 C10.46441775 0.93802214 13.39788131 1.44170936 16.40625 2 C23.82920976 3.2639964 31.23683538 3.45128521 38.75 3.625 C40.14064609 3.66330444 41.53127162 3.70236271 42.921875 3.7421875 C46.28112457 3.83549999 49.64038202 3.92128895 53 4 C53 4.33 53 4.66 53 5 C52.07316406 5.06058594 51.14632812 5.12117187 50.19140625 5.18359375 C48.99386719 5.26738281 47.79632812 5.35117187 46.5625 5.4375 C45.36753906 5.51871094 44.17257812 5.59992187 42.94140625 5.68359375 C40.11429756 5.67656114 40.11429756 5.67656114 39 7 C31.94106052 7.3524287 24.97811397 7.09460611 18 6 C18 5.34 18 4.68 18 4 C16.02 4.33 14.04 4.66 12 5 C12 4.34 12 3.68 12 3 C9.36 3 6.72 3 4 3 C4 2.34 4 1.68 4 1 C2.68 0.67 1.36 0.34 0 0 Z " fill="#323436" transform="translate(480,824)"/>
<path d="M0 0 C0.33 0.66 0.66 1.32 1 2 C1.66 2.33 2.32 2.66 3 3 C2.319375 3.66 1.63875 4.32 0.9375 5 C-1.27164814 7.19673719 -3.29756546 9.49959552 -5.3125 11.875 C-8.88801754 16.00119378 -12.82208095 19.4993608 -17 23 C-18.33426974 24.14474279 -19.66766302 25.29050829 -21 26.4375 C-21.99 27.283125 -22.98 28.12875 -24 29 C-24.99 28.34 -25.98 27.68 -27 27 C-26.39414062 26.53851562 -25.78828125 26.07703125 -25.1640625 25.6015625 C-15.52970275 18.10158399 -7.2016946 9.87252173 0 0 Z " fill="#111017" transform="translate(837,652)"/>
<path d="M0 0 C-3.27229886 3.36663541 -6.63285895 6.39967271 -10.3125 9.3125 C-15.20028621 13.25981786 -19.67294663 17.44977482 -24 22 C-24.66 21.67 -25.32 21.34 -26 21 C-25.690625 20.401875 -25.38125 19.80375 -25.0625 19.1875 C-23.89790296 16.91043228 -23.89790296 16.91043228 -23 14 C-21.3984375 12.859375 -21.3984375 12.859375 -19.375 11.75 C-15.50718703 9.46542107 -12.59881107 6.82437956 -9.54296875 3.55078125 C-6.38602992 0.37785792 -4.34040764 -0.23461663 0 0 Z " fill="#1F1C26" transform="translate(311,266)"/>
<path d="M0 0 C0.66 0.33 1.32 0.66 2 1 C0 15 -2 29 -4 43 C-4.33 43 -4.66 43 -5 43 C-5.05878077 39.35423608 -5.0938558 35.70859648 -5.125 32.0625 C-5.14175781 31.04091797 -5.15851563 30.01933594 -5.17578125 28.96679688 C-5.21944394 22.13358569 -5.14580955 15.19556083 -1.96923828 8.98461914 C-0.55825457 6.09547894 -0.36562924 3.16878673 0 0 Z " fill="#212128" transform="translate(213,422)"/>
<path d="M0 0 C5.48126528 1.82708843 7.7843696 7.71515966 10.39453125 12.62109375 C15.75498584 23.77926055 17.47246897 34.70306978 18 47 C17.34 47 16.68 47 16 47 C15.82984375 45.77925781 15.6596875 44.55851563 15.484375 43.30078125 C13.13425063 27.07467646 9.40247411 13.58135149 0 0 Z " fill="#514F47" transform="translate(738,770)"/>
<path d="M0 0 C3.40029716 0.58625813 4.60909911 1.60909911 7 4 C11.26324766 6.65447496 15.1526753 8.58127082 20 10 C20 11.32 20 12.64 20 14 C14.35933752 12.34540567 9.79049926 10.51303279 5 7 C3.87858224 6.24465425 2.75362943 5.49452711 1.625 4.75 C0.75875 4.1725 -0.1075 3.595 -1 3 C-0.67 2.01 -0.34 1.02 0 0 Z " fill="#10100E" transform="translate(326,795)"/>
<path d="M0 0 C0.99 0 1.98 0 3 0 C2.40546697 12.66970387 2.40546697 12.66970387 -1 18 C-2.65 18 -4.3 18 -6 18 C-6 17.34 -6 16.68 -6 16 C-5.34 16 -4.68 16 -4 16 C-3.896875 15.030625 -3.79375 14.06125 -3.6875 13.0625 C-3.05370121 8.51406161 -1.55244173 4.30582896 0 0 Z " fill="#E48186" transform="translate(584,585)"/>
<path d="M0 0 C1.65 0 3.3 0 5 0 C5 2.64 5 5.28 5 8 C4.34 8 3.68 8 3 8 C3 9.65 3 11.3 3 13 C0.35261084 14.4606285 -0.89448334 15 -4 15 C-4.625 13.125 -4.625 13.125 -5 11 C-4.34 10.34 -3.68 9.68 -3 9 C-2.34 9.33 -1.68 9.66 -1 10 C-0.67 6.7 -0.34 3.4 0 0 Z " fill="#EF999F" transform="translate(284,607)"/>
<path d="M0 0 C0.33 0 0.66 0 1 0 C0.34 13.86 -0.32 27.72 -1 42 C-1.33 42 -1.66 42 -2 42 C-3.70528003 13.16249666 -3.70528003 13.16249666 -2 4 C-1.34 4 -0.68 4 0 4 C0 2.68 0 1.36 0 0 Z " fill="#393942" transform="translate(207,470)"/>
<path d="M0 0 C2 2 2 2 2.15112305 3.90771484 C2.10511963 4.66777832 2.05911621 5.4278418 2.01171875 6.2109375 C1.96466797 7.04367187 1.91761719 7.87640625 1.86914062 8.734375 C1.80919922 9.60578125 1.74925781 10.4771875 1.6875 11.375 C1.63916016 12.23867188 1.59082031 13.10234375 1.54101562 13.9921875 C1.3094468 17.79108881 1.01779208 21.32049104 0 25 C-0.66 25 -1.32 25 -2 25 C-2 26.98 -2 28.96 -2 31 C-2.33 31 -2.66 31 -3 31 C-3.02686553 29.02090602 -3.04633375 27.04171029 -3.0625 25.0625 C-3.07410156 23.96035156 -3.08570313 22.85820312 -3.09765625 21.72265625 C-3 19 -3 19 -2 18 C-1.77486899 16.66197814 -1.60639193 15.31426977 -1.46484375 13.96484375 C-1.37783203 13.15595703 -1.29082031 12.34707031 -1.20117188 11.51367188 C-1.11416016 10.66353516 -1.02714844 9.81339844 -0.9375 8.9375 C-0.84662109 8.08349609 -0.75574219 7.22949219 -0.66210938 6.34960938 C-0.43749278 4.23348465 -0.21824773 2.11679106 0 0 Z " fill="#131214" transform="translate(207,449)"/>
<path d="M0 0 C1.32 0.33 2.64 0.66 4 1 C4 2.65 4 4.3 4 6 C3.34 6 2.68 6 2 6 C2 5.34 2 4.68 2 4 C1.34 4 0.68 4 0 4 C-0.185625 5.8253125 -0.185625 5.8253125 -0.375 7.6875 C-0.78891306 11.06479059 -1.54573451 13.89756695 -3 17 C-1.02 16.34 0.96 15.68 3 15 C3 15.99 3 16.98 3 18 C0.36 18 -2.28 18 -5 18 C-3.75971762 11.82777121 -2.10396411 5.93317878 0 0 Z " fill="#DE7677" transform="translate(599,586)"/>
<path d="M0 0 C4.50002257 1.68750846 8.72379627 3.82364184 13 6 C14.3328694 6.66759372 15.66607302 7.33452195 17 8 C14 10 14 10 10.8125 9.5 C6.21489856 8.02640979 2.67799611 5.03792926 -1 2 C-0.67 1.34 -0.34 0.68 0 0 Z " fill="#1F1F21" transform="translate(331,795)"/>
<path d="M0 0 C6.63045938 0.30922967 9.7312988 1.65070646 14.375 6.3125 C14.89449219 6.79912109 15.41398437 7.28574219 15.94921875 7.78710938 C18.57060151 10.30350135 20.65846017 12.59766105 22 16 C21.01 16 20.02 16 19 16 C17.23828125 14.20703125 17.23828125 14.20703125 15.3125 11.8125 C11.61469791 7.47338168 7.94881193 4.73227089 3 2 C2.01 1.34 1.02 0.68 0 0 Z " fill="#131018" transform="translate(476,154)"/>
<path d="M0 0 C0.33 0 0.66 0 1 0 C1.22084624 6.09781001 1.01167675 11.21642935 -1 17 C-2.32 17 -3.64 17 -5 17 C-4.54810561 14.91526053 -4.08823175 12.83224964 -3.625 10.75 C-3.24214844 9.00976562 -3.24214844 9.00976562 -2.8515625 7.234375 C-2.14203595 4.53947599 -1.36903611 2.40474168 0 0 Z " fill="#EC8C93" transform="translate(271,603)"/>
<path d="M0 0 C0.99 0 1.98 0 3 0 C2.34 5.28 1.68 10.56 1 16 C0.34 15.67 -0.32 15.34 -1 15 C-1 14.34 -1 13.68 -1 13 C-1.66 13 -2.32 13 -3 13 C-3 11.35 -3 9.7 -3 8 C-2.34 8 -1.68 8 -1 8 C-1.020625 7.05125 -1.04125 6.1025 -1.0625 5.125 C-1 2 -1 2 0 0 Z " fill="#141418" transform="translate(321,760)"/>
<path d="M0 0 C0 6.50503726 -2.08774017 9.99057505 -6 15 C-6.99 14.67 -7.98 14.34 -9 14 C-7.87548273 11.0280615 -6.77706209 8.66559313 -5 6 C-4.34 6 -3.68 6 -3 6 C-2.814375 5.071875 -2.814375 5.071875 -2.625 4.125 C-2 2 -2 2 0 0 Z " fill="#1D1C20" transform="translate(269,300)"/>
<path d="M0 0 C0.99 0.66 1.98 1.32 3 2 C2.0409375 2.6496875 2.0409375 2.6496875 1.0625 3.3125 C-1.72711107 6.94744775 -1.56827642 9.95460456 -1.7265625 14.44140625 C-2 17 -2 17 -4 20 C-3.979375 19.278125 -3.95875 18.55625 -3.9375 17.8125 C-3.90656665 15.03045206 -3.90656665 15.03045206 -4.5625 12.5 C-5.31096567 8.22305332 -4.23220317 4.67656992 -2 1 C-1.34 0.67 -0.68 0.34 0 0 Z " fill="#18161E" transform="translate(356,184)"/>
<path d="M0 0 C2.24126438 3.36189658 3.09014492 6.58135418 4.0625 10.4375 C4.23587891 11.10587891 4.40925781 11.77425781 4.58789062 12.46289062 C5.40909218 15.63757401 6.21043163 18.8173069 7 22 C4 21 4 21 2.83203125 19.1015625 C0.13745991 12.55612867 -0.48219282 7.04537283 0 0 Z " fill="#35363D" transform="translate(193,641)"/>
<path d="M0 0 C10.07065217 1.77717391 10.07065217 1.77717391 13.375 6.125 C13.91125 7.07375 14.4475 8.0225 15 9 C12.55856115 8.56402878 11.15433301 8.12725705 9.21875 6.53125 C6.54501035 4.68599306 4.44525933 4.30700442 1.25 3.8125 C-0.22726562 3.57466797 -0.22726562 3.57466797 -1.734375 3.33203125 C-2.48203125 3.22246094 -3.2296875 3.11289063 -4 3 C-2.68 2.67 -1.36 2.34 0 2 C0 1.34 0 0.68 0 0 Z " fill="#1D1C24" transform="translate(571,156)"/>
<path d="M0 0 C4.69159716 3.38772897 9.0299782 6.78185183 13 11 C12.34 11 11.68 11 11 11 C10.67 11.66 10.34 12.32 10 13 C8.2925002 11.71937515 6.62626404 10.38232443 5 9 C5 8.34 5 7.68 5 7 C4.34 7 3.68 7 3 7 C3 6.34 3 5.68 3 5 C2.01 4.67 1.02 4.34 0 4 C0 2.68 0 1.36 0 0 Z " fill="#19181D" transform="translate(220,691)"/>
<path d="M0 0 C2 2 2 2 2.3125 4.625 C1.91941754 8.87029056 0.62823661 12.06509487 -1 16 C-2.8291543 12.91154332 -3.2064877 10.98729251 -2.75 7.4375 C-2.66234375 6.67308594 -2.5746875 5.90867187 -2.484375 5.12109375 C-2 3 -2 3 0 0 Z " fill="#1E1E25" transform="translate(224,380)"/>
<path d="M0 0 C0.66 0.66 1.32 1.32 2 2 C0.06537998 3.31674138 -1.87279697 4.62825798 -3.8125 5.9375 C-4.89144531 6.66839844 -5.97039062 7.39929688 -7.08203125 8.15234375 C-10 10 -10 10 -13 11 C-12.9375 9.25 -12.9375 9.25 -12 7 C-9.76067964 5.47043965 -7.39572437 4.28342377 -5 3 C-4.67 2.34 -4.34 1.68 -4 1 C-2.0625 0.25 -2.0625 0.25 0 0 Z " fill="#201D24" transform="translate(329,251)"/>
<path d="M0 0 C-1.40844718 3.21524305 -3.10344786 5.32183868 -5.625 7.75 C-6.57246094 8.67039062 -6.57246094 8.67039062 -7.5390625 9.609375 C-8.02117187 10.06828125 -8.50328125 10.5271875 -9 11 C-9.66 10.67 -10.32 10.34 -11 10 C-10.690625 9.401875 -10.38125 8.80375 -10.0625 8.1875 C-8.89790296 5.91043228 -8.89790296 5.91043228 -8 3 C-2.77777778 0 -2.77777778 0 0 0 Z " fill="#312D35" transform="translate(296,277)"/>
<path d="M0 0 C4.38462134 0.50109958 6.8000997 1.98295115 10 5 C10 5.66 10 6.32 10 7 C11.98 7.66 13.96 8.32 16 9 C15.67 10.32 15.34 11.64 15 13 C12.49609493 11.02573301 9.99755419 9.04479301 7.5 7.0625 C6.78457031 6.49853516 6.06914063 5.93457031 5.33203125 5.35351562 C4.65527344 4.81533203 3.97851562 4.27714844 3.28125 3.72265625 C2.65283203 3.22515869 2.02441406 2.72766113 1.37695312 2.21508789 C0.92255859 1.81410889 0.46816406 1.41312988 0 1 C0 0.67 0 0.34 0 0 Z " fill="#211E29" transform="translate(712,258)"/>
<path d="M0 0 C0.66 0.33 1.32 0.66 2 1 C-0.64 5.62 -3.28 10.24 -6 15 C-6.66 14.67 -7.32 14.34 -8 14 C-6.58036591 8.32146365 -3.60636039 4.46825784 0 0 Z " fill="#1D1B24" transform="translate(250,330)"/>
<path d="M0 0 C1.65 0 3.3 0 5 0 C5 1.65 5 3.3 5 5 C4.01 5 3.02 5 2 5 C2 6.98 2 8.96 2 11 C1.34 11 0.68 11 0 11 C0 7.37 0 3.74 0 0 Z " fill="#E5868C" transform="translate(284,607)"/>
<path d="M0 0 C0.66 0.66 1.32 1.32 2 2 C1.79296875 3.953125 1.79296875 3.953125 1.1875 6.25 C0.29309056 9.82186738 -0.43955028 13.35707682 -1 17 C-3.17520782 13.73718826 -3.28244319 12.7659092 -3 9 C-2 6 -1 3 0 0 Z " fill="#141218" transform="translate(217,405)"/>
<path d="M0 0 C0 0.66 0 1.32 0 2 C-1.32 2 -2.64 2 -4 2 C-3.67 4.31 -3.34 6.62 -3 9 C-0.69 9 1.62 9 4 9 C4 9.33 4 9.66 4 10 C0.7 10 -2.6 10 -6 10 C-6 7.36 -6 4.72 -6 2 C-2.25 0 -2.25 0 0 0 Z " fill="#242227" transform="translate(644,749)"/>
<path d="M0 0 C0.33 0 0.66 0 1 0 C0.85775413 2.52108103 0.71129879 5.04180403 0.5625 7.5625 C0.52318359 8.26697266 0.48386719 8.97144531 0.44335938 9.69726562 C0.17481721 14.1798541 -0.30616197 18.56293497 -1 23 C-1.33 23 -1.66 23 -2 23 C-2.0582253 19.91674642 -2.09367134 16.83363495 -2.125 13.75 C-2.14175781 12.87730469 -2.15851563 12.00460937 -2.17578125 11.10546875 C-2.18222656 10.26113281 -2.18867188 9.41679687 -2.1953125 8.546875 C-2.20578613 7.77182617 -2.21625977 6.99677734 -2.22705078 6.19824219 C-1.97326556 3.74116461 -1.22444152 2.12688458 0 0 Z " fill="#34343F" transform="translate(210,442)"/>
<path d="M0 0 C1.36511719 0.43119141 1.36511719 0.43119141 2.7578125 0.87109375 C3.45648438 1.09925781 4.15515625 1.32742188 4.875 1.5625 C4.545 2.5525 4.215 3.5425 3.875 4.5625 C2.41390937 4.30695946 0.95611904 4.03249628 -0.5 3.75 C-1.31210937 3.59917969 -2.12421875 3.44835937 -2.9609375 3.29296875 C-5.125 2.5625 -5.125 2.5625 -7.125 -0.4375 C-4.30685434 -1.84657283 -2.95222796 -0.94622691 0 0 Z " fill="#222222" transform="translate(297.125,732.4375)"/>
<path d="M0 0 C0.66 0 1.32 0 2 0 C1.88529863 1.75070517 1.75780972 3.50057536 1.625 5.25 C1.55539062 6.22453125 1.48578125 7.1990625 1.4140625 8.203125 C1.01534751 10.89633189 0.36492937 12.66963279 -1 15 C-1.33 15 -1.66 15 -2 15 C-1.85816304 13.24967156 -1.71136571 11.49974466 -1.5625 9.75 C-1.48128906 8.77546875 -1.40007812 7.8009375 -1.31640625 6.796875 C-1.04925416 4.43538247 -0.64628032 2.28098935 0 0 Z " fill="#0E0C09" transform="translate(316,760)"/>
<path d="M0 0 C0.66 0.66 1.32 1.32 2 2 C0.02 4.97 -1.96 7.94 -4 11 C-4.66 10.67 -5.32 10.34 -6 10 C-5.49477778 5.62140745 -2.82172778 3.18348776 0 0 Z " fill="#1D1B23" transform="translate(258,317)"/>
<path d="M0 0 C0.99 0 1.98 0 3 0 C1.58192622 4.47238653 -0.11304374 8.71146306 -2 13 C-2.33 13 -2.66 13 -3 13 C-2.88557539 11.39504433 -2.75805306 9.79101881 -2.625 8.1875 C-2.55539063 7.29417969 -2.48578125 6.40085937 -2.4140625 5.48046875 C-2 3 -2 3 0 0 Z " fill="#1F1D27" transform="translate(237,351)"/>
<path d="M0 0 C3 1.75 3 1.75 6 4 C6 5.32 6 6.64 6 8 C8.475 8.99 8.475 8.99 11 10 C10.01 10.33 9.02 10.66 8 11 C2.19794344 5.35475578 2.19794344 5.35475578 0 2 C0 1.34 0 0.68 0 0 Z " fill="#F89F98" transform="translate(552,607)"/>
<path d="M0 0 C0.33 0 0.66 0 1 0 C1.07654536 4.51617599 1.10228696 8.59085217 0 13 C-0.66 13 -1.32 13 -2 13 C-1.979375 12.030625 -1.95875 11.06125 -1.9375 10.0625 C-1.64381501 7.12534105 -1.64381501 7.12534105 -3 6 C-3.36162029 4.67405895 -3.69728039 3.34061543 -4 2 C-3.34 2 -2.68 2 -2 2 C-2 2.66 -2 3.32 -2 4 C-1.34 4 -0.68 4 0 4 C0 2.68 0 1.36 0 0 Z " fill="#F3A19D" transform="translate(603,588)"/>
<path d="M0 0 C0.66 0.33 1.32 0.66 2 1 C1.43447641 4.28003681 0.67167078 5.97321527 -2 8 C-5.1875 9.1875 -5.1875 9.1875 -8 10 C-6.66415278 5.99245833 -4.23106172 4.62523764 -1 2 C-0.67 1.34 -0.34 0.68 0 0 Z " fill="#1C1A1D" transform="translate(284,284)"/>
<path d="M0 0 C2 2 2 2 2.25 5.4375 C2 9 2 9 0 12 C0 11.34 0 10.68 0 10 C-0.66 9.67 -1.32 9.34 -2 9 C-1.125 1.125 -1.125 1.125 0 0 Z " fill="#242226" transform="translate(351,855)"/>
<path d="M0 0 C6.27 0.33 12.54 0.66 19 1 C19 1.33 19 1.66 19 2 C15.37 2.66 11.74 3.32 8 4 C8 3.34 8 2.68 8 2 C6.02 2.33 4.04 2.66 2 3 C1.34 2.01 0.68 1.02 0 0 Z " fill="#121215" transform="translate(349,803)"/>
<path d="M0 0 C0 0.99 0 1.98 0 3 C-1.75 4.38671875 -1.75 4.38671875 -4 5.6875 C-4.7425 6.12449219 -5.485 6.56148437 -6.25 7.01171875 C-6.8275 7.33785156 -7.405 7.66398438 -8 8 C-8.99 7.34 -9.98 6.68 -11 6 C-7.37 4.02 -3.74 2.04 0 0 Z " fill="#151A1E" transform="translate(782,699)"/>
<path d="M0 0 C0.99 0.33 1.98 0.66 3 1 C2.67 3.97 2.34 6.94 2 10 C0.68 10 -0.64 10 -2 10 C-1.34 6.7 -0.68 3.4 0 0 Z " fill="#2D2C33" transform="translate(431,616)"/>
<path d="M0 0 C0.99 0.33 1.98 0.66 3 1 C2.34 4.3 1.68 7.6 1 11 C-1 9 -1 9 -1.1875 5.5 C-1 2 -1 2 0 0 Z " fill="#16171C" transform="translate(353,844)"/>
<path d="M0 0 C0.33 0.66 0.66 1.32 1 2 C1.66 2.33 2.32 2.66 3 3 C0.42215154 5.64752004 -1.91648098 7.94432065 -5 10 C-5.33 9.01 -5.66 8.02 -6 7 C-4.78515625 5.17578125 -4.78515625 5.17578125 -3.0625 3.3125 C-2.49660156 2.68988281 -1.93070313 2.06726563 -1.34765625 1.42578125 C-0.90292969 0.95527344 -0.45820312 0.48476563 0 0 Z " fill="#1F1F26" transform="translate(837,652)"/>
<path d="M0 0 C0.66 0.66 1.32 1.32 2 2 C1.9765625 4.8203125 1.9765625 4.8203125 1.625 8.125 C1.51414062 9.22070312 1.40328125 10.31640625 1.2890625 11.4453125 C1.19367188 12.28835938 1.09828125 13.13140625 1 14 C-1.02907167 10.6853333 -1.12742133 8.5684021 -0.625 4.75 C-0.51414062 3.85796875 -0.40328125 2.9659375 -0.2890625 2.046875 C-0.19367188 1.37140625 -0.09828125 0.6959375 0 0 Z " fill="#151214" transform="translate(347,877)"/>
<path d="M0 0 C1.40742022 2.81484045 0.66652164 4.56936113 0.0625 7.625 C-0.13214844 8.62789062 -0.32679688 9.63078125 -0.52734375 10.6640625 C-0.68332031 11.43492187 -0.83929688 12.20578125 -1 13 C-3.32579101 9.51131349 -3.41865457 8.10281481 -3 4 C-1.5 1.625 -1.5 1.625 0 0 Z " fill="#19171D" transform="translate(199,556)"/>
<path d="M0 0 C0.33 0 0.66 0 1 0 C1 2.97 1 5.94 1 9 C0.01 9.495 0.01 9.495 -1 10 C-1.66 10.99 -2.32 11.98 -3 13 C-2.45144652 8.428721 -1.58255197 4.32564205 0 0 Z " fill="#141216" transform="translate(211,433)"/>
<path d="M0 0 C2.97 0.495 2.97 0.495 6 1 C6 1.66 6 2.32 6 3 C5.34 3 4.68 3 4 3 C4 3.99 4 4.98 4 6 C2.35 6 0.7 6 -1 6 C-1.33 5.01 -1.66 4.02 -2 3 C0.475 3.99 0.475 3.99 3 5 C2.2575 4.319375 2.2575 4.319375 1.5 3.625 C0 2 0 2 0 0 Z " fill="#141311" transform="translate(317,740)"/>
<path d="M0 0 C0 2.83967231 -0.40267181 5.23735711 -1 8 C-2.65 8.33 -4.3 8.66 -6 9 C-5.67 8.01 -5.34 7.02 -5 6 C-4.34 6 -3.68 6 -3 6 C-2.87625 5.38125 -2.7525 4.7625 -2.625 4.125 C-2 2 -2 2 0 0 Z " fill="#0F0D11" transform="translate(269,300)"/>
<path d="M0 0 C0 0.66 0 1.32 0 2 C-1.26418246 2.69965443 -2.53665402 3.38434763 -3.8125 4.0625 C-4.52019531 4.44535156 -5.22789062 4.82820312 -5.95703125 5.22265625 C-8 6 -8 6 -11 5 C-4.63636364 0 -4.63636364 0 0 0 Z " fill="#0A0D0F" transform="translate(773,706)"/>
<path d="M0 0 C0.33 0 0.66 0 1 0 C1.41176754 3.60296594 1.1535853 4.78402067 -1 7.8125 C-1.66 8.534375 -2.32 9.25625 -3 10 C-3.99 9.67 -4.98 9.34 -6 9 C-5.02501855 7.4972763 -4.04490611 5.99788037 -3.0625 4.5 C-2.51722656 3.6646875 -1.97195313 2.829375 -1.41015625 1.96875 C-0.94480469 1.3190625 -0.47945312 0.669375 0 0 Z " fill="#171419" transform="translate(847,638)"/>
<path d="M0 0 C2.23551759 3.35327639 2.17283528 3.90743657 1.625 7.6875 C1.51414062 8.49574219 1.40328125 9.30398438 1.2890625 10.13671875 C1.19367187 10.75160156 1.09828125 11.36648438 1 12 C-1.58464442 7.61991557 -0.81479148 4.88874887 0 0 Z " fill="#1D1A1E" transform="translate(687,847)"/>
<path d="M0 0 C0.33 0.99 0.66 1.98 1 3 C-1.35968744 5.09749995 -2.54616994 5.96905704 -5.75 6.1875 C-6.86375 6.0946875 -6.86375 6.0946875 -8 6 C-5.38485683 3.87961365 -2.80362384 1.86908256 0 0 Z " fill="#191C21" transform="translate(793,692)"/>
<path d="M0 0 C0.66 0.99 1.32 1.98 2 3 C1.67 3.66 1.34 4.32 1 5 C2.98 4.34 4.96 3.68 7 3 C7 3.99 7 4.98 7 6 C4.36 6 1.72 6 -1 6 C-0.67 4.02 -0.34 2.04 0 0 Z " fill="#EA8987" transform="translate(595,598)"/>
<path d="M0 0 C0.66 0.66 1.32 1.32 2 2 C1.9765625 4.3828125 1.9765625 4.3828125 1.625 7.125 C1.51414062 8.03507813 1.40328125 8.94515625 1.2890625 9.8828125 C1.19367188 10.58148437 1.09828125 11.28015625 1 12 C-1.23551759 8.64672361 -1.17283528 8.09256343 -0.625 4.3125 C-0.51414062 3.50425781 -0.40328125 2.69601562 -0.2890625 1.86328125 C-0.19367188 1.24839844 -0.09828125 0.63351562 0 0 Z " fill="#1A181B" transform="translate(349,866)"/>
<path d="M0 0 C-1.36983503 3.16115776 -1.9890638 3.9927092 -5 6 C-5.66 5.34 -6.32 4.68 -7 4 C-3.375 0 -3.375 0 0 0 Z " fill="#2C2931" transform="translate(281,292)"/>
<path d="M0 0 C2.40072955 2.88087546 4.47291037 5.56404834 6 9 C3.15616877 7.7251791 0.86245982 6.54862922 -1 4 C-0.6875 1.8125 -0.6875 1.8125 0 0 Z " fill="#232429" transform="translate(203,669)"/>
<path d="M0 0 C0.33 0 0.66 0 1 0 C1 2.31 1 4.62 1 7 C0.01 7 -0.98 7 -2 7 C-2.33 7.66 -2.66 8.32 -3 9 C-2.44271087 5.65626525 -1.64826111 2.96687001 0 0 Z " fill="#151519" transform="translate(233,359)"/>
<path d="M0 0 C1.2065625 0.0309375 1.2065625 0.0309375 2.4375 0.0625 C-2.3125 4.9375 -2.3125 4.9375 -4.5625 6.0625 C-3.48963568 0.08511307 -3.48963568 0.08511307 0 0 Z " fill="#36333B" transform="translate(308.5625,265.9375)"/>
<path d="M0 0 C0.33333333 1.33333333 0.66666667 2.66666667 1 4 C1.309375 5.051875 1.309375 5.051875 1.625 6.125 C2 8 2 8 1 10 C0.34 10 -0.32 10 -1 10 C-1.02689216 8.52093108 -1.04634621 7.04172517 -1.0625 5.5625 C-1.07410156 4.73878906 -1.08570313 3.91507813 -1.09765625 3.06640625 C-1 1 -1 1 0 0 Z " fill="#171516" transform="translate(590,188)"/>
<path d="M0 0 C7.50769231 0.49230769 7.50769231 0.49230769 10 3.0625 C10.33 3.701875 10.66 4.34125 11 5 C7.80389448 5 6.58282374 4.45328458 3.8125 3 C3.09707031 2.62875 2.38164062 2.2575 1.64453125 1.875 C1.10183594 1.58625 0.55914062 1.2975 0 1 C0 0.67 0 0.34 0 0 Z " fill="#1E1B25" transform="translate(476,154)"/>
<path d="M0 0 C0 0.66 0 1.32 0 2 C-0.66 2 -1.32 2 -2 2 C-2 2.66 -2 3.32 -2 4 C-4.64 4.33 -7.28 4.66 -10 5 C-3.63636364 0 -3.63636364 0 0 0 Z " fill="#181D24" transform="translate(759,712)"/>
<path d="M0 0 C1.32 0.33 2.64 0.66 4 1 C3.67 3.31 3.34 5.62 3 8 C0.4345406 5.4345406 0.45953913 3.52313332 0 0 Z " fill="#3E393A" transform="translate(434,668)"/>
<path d="M0 0 C0.33 0 0.66 0 1 0 C1 2.64 1 5.28 1 8 C0.01 8.33 -0.98 8.66 -2 9 C-1.125 2.25 -1.125 2.25 0 0 Z " fill="#EA8089" transform="translate(271,603)"/>
<path d="M0 0 C0.99 0.66 1.98 1.32 3 2 C1.02 3.32 -0.96 4.64 -3 6 C-3.66 5.34 -4.32 4.68 -5 4 C-3.35 2.68 -1.7 1.36 0 0 Z " fill="#1C1D23" transform="translate(815,675)"/>
<path d="M0 0 C0.66 0.66 1.32 1.32 2 2 C1.625 5.625 1.625 5.625 1 9 C-1.14809171 5.77786243 -1.29386153 4.72224599 -1 1 C-0.67 0.67 -0.34 0.34 0 0 Z " fill="#222228" transform="translate(217,405)"/>
<path d="M0 0 C2 2 2 2 2.25 5 C2 8 2 8 0 10 C-0.74926071 6.33694766 -1.2380014 3.57644848 0 0 Z " fill="#28272E" transform="translate(224,380)"/>
<path d="M0 0 C3.24208567 0.35049575 4.61527704 0.56221181 6.8125 3.0625 C7.204375 3.701875 7.59625 4.34125 8 5 C4.20411134 4.45773019 2.52788007 2.79872437 0 0 Z " fill="#16121C" transform="translate(712,258)"/>
<path d="M0 0 C0.33 1.65 0.66 3.3 1 5 C0.67 4.01 0.34 3.02 0 2 C-2.64 1.67 -5.28 1.34 -8 1 C-4.93251126 -0.86240388 -3.40254489 -1.2151946 0 0 Z " fill="#353435" transform="translate(528,227)"/>
<path d="M0 0 C2 4 2 4 1.75 6.125 C1 8 1 8 -1 10 C-0.67 6.7 -0.34 3.4 0 0 Z " fill="#FEBBB9" transform="translate(551,595)"/>
<path d="M0 0 C0.66 0.33 1.32 0.66 2 1 C-0.25 3.5625 -0.25 3.5625 -3 6 C-4.32 5.67 -5.64 5.34 -7 5 C-4.69 3.35 -2.38 1.7 0 0 Z " fill="#252426" transform="translate(502,238)"/>
<path d="M0 0 C0.66 0 1.32 0 2 0 C3.38938077 1.96147874 4.7260411 3.96166576 6 6 C3.11424181 5.60196439 2.17810487 5.20990931 0.25 2.9375 C-0.1625 2.298125 -0.575 1.65875 -1 1 C-0.67 0.67 -0.34 0.34 0 0 Z " fill="#110E1A" transform="translate(580,159)"/>
</svg>
